<?xml version="1.0" encoding="iso-8859-1"?>
<!-- Generator: Adobe Illustrator 19.0.0, SVG Export Plug-In . SVG Version: 6.00 Build 0)  -->
<svg version="1.1" id="Layer_1" xmlns="http://www.w3.org/2000/svg" xmlns:xlink="http://www.w3.org/1999/xlink" x="0px" y="0px"
	 viewBox="0 0 473.935 473.935" style="enable-background:new 0 0 473.935 473.935;" xml:space="preserve">
<circle style="fill:#B1C635;" cx="236.967" cy="236.967" r="236.967"/>
<path style="fill:#828282;" d="M223.153,391.825l-2.952,24.191c0,7.951,8.917,10.398,24.445,10.398
	c15.536,0,25.979-2.447,25.979-10.398l-2.96-24.191H223.153z"/>
<path style="fill:#C0C0C0;" d="M213.701,378.639l-4.202,26.088c0,10.275,12.696,8.868,34.817,8.868
	c22.136,0,37.017,1.407,37.017-8.868l-4.202-26.088H213.701z"/>
<path style="fill:#939292;" d="M210.236,367.271l-4.662,27.001c0,11.397,14.077,10.238,38.623,10.238
	c24.557,0,41.059,1.16,41.059-10.238l-4.67-27.001H210.236z"/>
<path style="fill:#C0C0C0;" d="M209.016,357.004l-4.838,27.326c0,11.79,16.924,10.862,42.323,10.862
	c25.41,0,40.146,0.928,40.146-10.862l-4.831-27.326H209.016z"/>
<path style="fill:#A19F9F;" d="M209.016,364.996l-4.838,9.661c0,11.79,14.578,10.615,39.985,10.615
	c25.396,0,42.484,1.175,42.484-10.615l-4.831-9.661H209.016z"/>
<path style="fill:#C0C0C0;" d="M264.574,338.815h-38.316c-12.198,0-22.077,9.557-22.077,21.343v4.838
	c0,11.787,16.165,10.11,41.568,10.11s40.898,1.676,40.898-10.11v-4.838C286.643,348.372,276.765,338.815,264.574,338.815z"/>
<path style="fill:#E7E7E7;" d="M289.401,339.99c0-54.784,78.791-64.853,78.791-153.559c0-69.347-56.164-125.518-125.511-125.537
	c-69.358,0.034-125.515,56.187-125.515,125.548c0,85.923,80.463,97.736,80.463,153.649
	C197.63,376.083,289.401,377.015,289.401,339.99z"/>
<g>
	<path style="fill:#8CB23F;" d="M312.267,233.529l-2.062-2.009l-50.784,27.023l-3.435-52.351c0-1.265-0.094-2.496-0.228-3.697
		l13.074-34.481l-1.381-1.126l-19.858,19.629c-0.086-0.052-0.153-0.086-0.239-0.138l-27.165-42.11l-1.785,1.463l11.158,53.242
		c-0.52,2.26-0.819,4.681-0.819,7.218l-2.885,43.951l-51.502-66.473l-1.856,1.34l51.124,99.255l6.717,81.799
		c0,0,6.226,1.68,14.866,1.68c8.647,0,14.107-1.68,14.107-1.68l1.833-81.204L312.267,233.529z"/>
	<path style="fill:#8CB23F;" d="M179.973,187.898c2.713,2.791,7.162,2.859,9.961,0.153c5.152-4.999,4.685-14.346,4.685-14.346
		c-6.578,2.612-10.765,0.614-14.492,4.232C177.335,180.65,177.271,185.11,179.973,187.898z"/>
	<path style="fill:#8CB23F;" d="M167.03,164.018c3.764,0.816,7.491-1.59,8.296-5.362c1.497-6.967-4.049-14.428-4.049-14.428
		c-3.978,5.777-8.535,6.436-9.631,11.484C160.848,159.482,163.247,163.209,167.03,164.018z"/>
	<path style="fill:#8CB23F;" d="M157.428,155.393c3.046-2.387,3.573-6.784,1.197-9.818c-4.4-5.609-13.68-6.114-13.68-6.114
		c1.901,6.746-0.513,10.679,2.668,14.743C150.005,157.237,154.401,157.769,157.428,155.393z"/>
	<path style="fill:#8CB23F;" d="M167.34,191.699c-4.116,1.818-3.873,5.826-8.075,10.234c0,0,7.345,3.398,13.003,0.887
		c3.068-1.366,4.456-4.962,3.091-8.037C173.989,191.722,170.409,190.334,167.34,191.699z"/>
	<path style="fill:#8CB23F;" d="M170.064,169.585c-1.175,2.866,0.191,6.133,3.061,7.304c2.844,1.179,6.125-0.187,7.285-3.042
		c2.17-5.276-1.134-11.936-1.134-11.936C175.325,165.892,171.636,165.761,170.064,169.585z"/>
	<path style="fill:#8CB23F;" d="M168.975,180.889c-0.629-5.175-5.343-8.861-10.503-8.232c-6.915,0.846-8.359,6.889-16.61,11.521
		c0,0,9.332,8.374,18.892,7.222C165.922,190.764,169.604,186.06,168.975,180.889z"/>
	<path style="fill:#8CB23F;" d="M155.879,169.963c3.076-0.569,5.115-3.521,4.561-6.604c-0.576-3.072-3.529-5.108-6.615-4.55
		c-4.101,0.756-4.752,4.438-9.53,7.514C144.295,166.326,150.199,171,155.879,169.963z"/>
	<path style="fill:#8CB23F;" d="M308.911,238.258c-2.844,2.638-3.035,7.094-0.389,9.953c4.861,5.268,14.223,5.025,14.223,5.025
		c-2.447-6.619-0.344-10.761-3.865-14.578C316.233,235.8,311.777,235.62,308.911,238.258z"/>
	<path style="fill:#8CB23F;" d="M341.55,220.739c-3.757-0.906-7.536,1.407-8.441,5.156c-0.913,3.76,1.403,7.54,5.16,8.441
		c6.93,1.669,14.522-3.686,14.522-3.686C347.118,226.524,346.572,221.955,341.55,220.739z"/>
	<path style="fill:#8CB23F;" d="M351.762,217.963c5.714-4.254,6.455-13.523,6.455-13.523c-6.803,1.725-10.679-0.778-14.814,2.305
		c-3.098,2.305-3.727,6.694-1.433,9.785C344.286,219.632,348.675,220.268,351.762,217.963z"/>
	<path style="fill:#8CB23F;" d="M302.153,233.48c3.091-1.295,4.569-4.857,3.274-7.955c-1.71-4.146-5.721-4-10.028-8.314
		c0,0-3.573,7.252-1.205,12.98C295.489,233.289,299.047,234.76,302.153,233.48z"/>
	<path style="fill:#8CB23F;" d="M327.474,228.803c-2.836-1.242-6.14,0.045-7.39,2.881c-1.242,2.821,0.045,6.125,2.874,7.368
		c5.224,2.305,11.955-0.842,11.955-0.842C331.043,234.157,331.253,230.468,327.474,228.803z"/>
	<path style="fill:#8CB23F;" d="M305.902,218.951c0.498,5.182,5.122,8.988,10.305,8.498c5.182-0.509,8.988-5.126,8.479-10.301
		c-0.666-6.937-6.687-8.528-11.109-16.898C313.577,200.249,304.989,209.375,305.902,218.951z"/>
	<path style="fill:#8CB23F;" d="M333.928,219.332c3.091-0.49,5.212-3.39,4.715-6.488c-0.659-4.12-4.311-4.868-7.263-9.714
		c0,0-4.831,5.789-3.94,11.495C327.934,217.708,330.838,219.811,333.928,219.332z"/>
	<path style="fill:#8CB23F;" d="M264.238,193.656c-2.425,3.042-1.916,7.476,1.126,9.897c5.613,4.468,14.829,2.795,14.829,2.795
		c-3.435-6.163-1.994-10.578-6.065-13.818C271.1,190.113,266.655,190.614,264.238,193.656z"/>
	<path style="fill:#8CB23F;" d="M293.206,191.385c-4.539-8.165-2.638-14.006-8.019-18.294c-4.026-3.199-9.89-2.537-13.104,1.489
		c-3.195,4.034-2.537,9.897,1.489,13.104C281.016,193.608,293.206,191.385,293.206,191.385z"/>
	<path style="fill:#8CB23F;" d="M288.574,155.677c-3.843-0.314-7.229,2.544-7.543,6.391c-0.329,3.854,2.537,7.233,6.372,7.555
		c7.117,0.591,13.792-5.867,13.792-5.867C294.969,160.553,293.727,156.107,288.574,155.677z"/>
	<path style="fill:#8CB23F;" d="M297.255,156.152c2.761,2.717,7.177,2.675,9.897-0.079c4.992-5.078,4.296-14.346,4.296-14.346
		c-6.447,2.739-10.649,0.857-14.279,4.531C294.464,149.02,294.501,153.447,297.255,156.152z"/>
	<path style="fill:#8CB23F;" d="M248.657,171.95c5.882,1.471,11.854-2.099,13.332-7.966c1.972-7.858-3.981-11.962-5.56-22.84
		c0,0-12.988,6.638-15.727,17.474C239.235,164.504,242.79,170.461,248.657,171.95z"/>
	<path style="fill:#8CB23F;" d="M240.163,152.65c3.772-3.794,1.777-8.142,4.561-14.851c0,0-9.609-0.617-14.836,4.606
		c-2.814,2.848-2.806,7.427,0.015,10.256C232.724,155.483,237.345,155.479,240.163,152.65z"/>
	<path style="fill:#8CB23F;" d="M209.873,160.553c5.044-1.298,8.097-6.443,6.818-11.48c-1.732-6.75-7.906-7.405-13.564-14.997
		c0,0-7.109,10.331-4.73,19.656C199.677,158.772,204.814,161.829,209.873,160.553z"/>
	<path style="fill:#8CB23F;" d="M215.31,182.031c-6.623,1.096-7.783,6.975-15.551,11.768c0,0,9.332,7.693,18.477,6.204
		c4.954-0.812,8.333-5.489,7.521-10.447C224.949,184.594,220.257,181.237,215.31,182.031z"/>
	<path style="fill:#8CB23F;" d="M289.289,146.562c3.45,0.183,6.395-2.485,6.593-5.942c0.247-4.61-3.558-6.268-5.643-12.198
		c0,0-6.563,5.156-6.892,11.547C283.175,143.423,285.831,146.371,289.289,146.562z"/>
	<path style="fill:#8CB23F;" d="M274.718,154.431c4.891-1.56,7.577-6.799,6.028-11.697c-2.107-6.511-8.228-6.803-14.23-13.923
		c0,0-6.38,10.589-3.487,19.614C264.612,153.301,269.835,155.988,274.718,154.431z"/>
	<path style="fill:#8CB23F;" d="M218.116,139.73c3.457,0.183,6.417-2.485,6.601-5.946c0.247-4.61-3.551-6.268-5.635-12.198
		c0,0-6.578,5.16-6.915,11.543C211.998,136.59,214.666,139.539,218.116,139.73z"/>
	<path style="fill:#8CB23F;" d="M215.325,164.264c-4.939-1.306-7.585,2.417-14.469,3.326c0,0,4.086,8.251,10.904,10.069
		c3.689,0.98,7.491-1.227,8.479-4.917C221.222,169.043,219.014,165.249,215.325,164.264z"/>
</g>
<g>
</g>
<g>
</g>
<g>
</g>
<g>
</g>
<g>
</g>
<g>
</g>
<g>
</g>
<g>
</g>
<g>
</g>
<g>
</g>
<g>
</g>
<g>
</g>
<g>
</g>
<g>
</g>
<g>
</g>
</svg>
